simulation
nRows=36
nColumns=15
endheader
time  TH_x TH_y TH_z SC_y  SC_z  SC_x  AC_y  AC_z  AC_x  GH_y  GH_z  GH_yy  EL_x  PS_y
0.500184  0.000000  0.000000  0.000000  -25.868776  10.741867  24.285714  57.815245  22.019989  11.134600  -18.433460  34.416008  2.893708  53.970872  103.093100
0.500552  0.000000  0.000000  0.000000  -25.868776  10.741867  32.857143  59.302042  14.702741  6.426752  -18.433460  34.416008  2.893708  53.970872  103.093100
0.500920  0.000000  0.000000  0.000000  -25.868776  10.741867  41.428571  60.143625  7.296776  2.027318  -18.433460  34.416008  2.893708  53.970872  103.093100
0.501288  0.000000  0.000000  0.000000  -25.868776  10.741867  50.000000  60.409508  -0.150329  -2.227798  -18.433460  34.416008  2.893708  53.970872  103.093100
0.501656  0.000000  0.000000  0.000000  -27.693919  21.996721  -10.000000  29.823756  36.868455  38.098927  -39.455183  20.453445  21.588269  70.375554  102.143014
0.502024  0.000000  0.000000  0.000000  -27.693919  21.996721  -1.428571  34.826053  32.274663  29.302105  -39.455183  20.453445  21.588269  70.375554  102.143014
0.502392  0.000000  0.000000  0.000000  -27.693919  21.996721  7.142857  38.750136  27.132441  21.400288  -39.455183  20.453445  21.588269  70.375554  102.143014
0.502760  0.000000  0.000000  0.000000  -27.693919  21.996721  15.714286  41.718799  21.588129  14.219288  -39.455183  20.453445  21.588269  70.375554  102.143014
0.503128  0.000000  0.000000  0.000000  -27.693919  21.996721  24.285714  43.848978  15.759257  7.581452  -39.455183  20.453445  21.588269  70.375554  102.143014
0.503497  0.000000  0.000000  0.000000  -27.693919  21.996721  32.857143  45.233980  9.740902  1.320499  -39.455183  20.453445  21.588269  70.375554  102.143014
0.503865  0.000000  0.000000  0.000000  -27.693919  21.996721  41.428571  45.937511  3.612630  -4.716256  -39.455183  20.453445  21.588269  70.375554  102.143014
0.504233  0.000000  0.000000  0.000000  -27.693919  21.996721  50.000000  45.992601  -2.555062  -10.671610  -39.455183  20.453445  21.588269  70.375554  102.143014
0.504601  0.000000  0.000000  0.000000  -52.484009  5.948978  24.285714  62.373720  30.845741  10.359160  -12.684325  6.203721  -18.369837  52.614832  105.949514
0.504969  0.000000  0.000000  0.000000  -52.484009  5.948978  32.857143  64.337159  23.180549  6.047561  -12.684325  6.203721  -18.369837  52.614832  105.949514
0.505337  0.000000  0.000000  0.000000  -52.484009  5.948978  41.428571  65.609086  15.410828  2.208521  -12.684325  6.203721  -18.369837  52.614832  105.949514
0.505705  0.000000  0.000000  0.000000  -52.484009  5.948978  50.000000  66.320401  7.580018  -1.351323  -12.684325  6.203721  -18.369837  52.614832  105.949514
0.506073  0.000000  0.000000  0.000000  -28.657933  16.598375  15.714286  41.764944  37.903535  33.398591  -95.767737  34.139500  33.319226  77.116977  106.309274
0.506441  0.000000  0.000000  0.000000  -28.657933  16.598375  24.285714  46.084847  31.947427  25.870514  -95.767737  34.139500  33.319226  77.116977  106.309274
0.506809  0.000000  0.000000  0.000000  -28.657933  16.598375  32.857143  49.260914  25.602672  19.288248  -95.767737  34.139500  33.319226  77.116977  106.309274
0.507177  0.000000  0.000000  0.000000  -28.657933  16.598375  41.428571  51.506604  18.993546  13.383898  -95.767737  34.139500  33.319226  77.116977  106.309274
0.507545  0.000000  0.000000  0.000000  -28.657933  16.598375  50.000000  52.975091  12.211743  7.937454  -95.767737  34.139500  33.319226  77.116977  106.309274
0.507913  0.000000  0.000000  0.000000  -38.194281  20.852765  -10.000000  31.745079  47.526053  35.704276  121.233235  20.065840  -115.508618  74.950298  105.261043
0.508281  0.000000  0.000000  0.000000  -38.194281  20.852765  -1.428571  38.772439  42.562545  25.795393  121.233235  20.065840  -115.508618  74.950298  105.261043
0.508649  0.000000  0.000000  0.000000  -38.194281  20.852765  7.142857  44.122094  36.876721  17.442936  121.233235  20.065840  -115.508618  74.950298  105.261043
0.509017  0.000000  0.000000  0.000000  -38.194281  20.852765  15.714286  48.105607  30.689862  10.295867  121.233235  20.065840  -115.508618  74.950298  105.261043
0.509385  0.000000  0.000000  0.000000  -38.194281  20.852765  24.285714  50.996851  24.159932  4.033645  121.233235  20.065840  -115.508618  74.950298  105.261043
0.509753  0.000000  0.000000  0.000000  -38.194281  20.852765  32.857143  53.003154  17.399738  -1.607630  121.233235  20.065840  -115.508618  74.950298  105.261043
0.510121  0.000000  0.000000  0.000000  -38.194281  20.852765  41.428571  54.267599  10.492564  -6.841113  121.233235  20.065840  -115.508618  74.950298  105.261043
0.510490  0.000000  0.000000  0.000000  -38.194281  20.852765  50.000000  54.878637  3.503611  -11.843878  121.233235  20.065840  -115.508618  74.950298  105.261043
0.510858  0.000000  0.000000  0.000000  -24.901203  22.879184  -10.000000  34.706764  27.622176  32.543474  11.322853  41.795830  -24.372506  27.839613  102.549262
0.511226  0.000000  0.000000  0.000000  -24.901203  22.879184  -1.428571  37.945050  22.536472  24.920479  11.322853  41.795830  -24.372506  27.839613  102.549262
0.511594  0.000000  0.000000  0.000000  -24.901203  22.879184  7.142857  40.346532  17.118102  17.856187  11.322853  41.795830  -24.372506  27.839613  102.549262
0.511962  0.000000  0.000000  0.000000  -24.901203  22.879184  15.714286  41.993540  11.469016  11.200312  11.322853  41.795830  -24.372506  27.839613  102.549262
0.512330  0.000000  0.000000  0.000000  -24.901203  22.879184  24.285714  42.948375  5.675369  4.809078  11.322853  41.795830  -24.372506  27.839613  102.549262
0.512698  0.000000  0.000000  0.000000  -24.901203  22.879184  32.857143  43.248927  -0.186965  -1.454057  11.322853  41.795830  -24.372506  27.839613  102.549262
0.513066  0.000000  0.000000  0.000000  -24.901203  22.879184  41.428571  42.907354  -6.047062  -7.721379  11.322853  41.795830  -24.372506  27.839613  102.549262
